<?xml version="1.0" encoding="UTF-8"?>
<svg xmlns="http://www.w3.org/2000/svg" xmlns:xlink="http://www.w3.org/1999/xlink" width="41px" height="41px" viewBox="0 0 41 41" version="1.1">
<g id="surface1">
<path style=" stroke:none;fill-rule:nonzero;fill:rgb(17.254902%,66.274512%,73.725492%);fill-opacity:1;" d="M 34.835938 6.148438 C 35.96875 6.148438 36.886719 7.066406 36.886719 8.195312 L 36.886719 15.453125 C 36.890625 25.667969 30.730469 34.875 21.289062 38.773438 C 20.777344 38.988281 20.203125 38.988281 19.695312 38.773438 C 10.253906 34.875 4.09375 25.667969 4.097656 15.453125 L 4.097656 8.195312 C 4.097656 7.066406 5.015625 6.148438 6.148438 6.148438 C 11.230469 6.222656 16.21875 4.796875 20.492188 2.050781 C 24.765625 4.796875 29.757812 6.222656 34.835938 6.148438 Z M 34.835938 6.148438 "/>
<path style="fill:none;stroke-width:2;stroke-linecap:round;stroke-linejoin:round;stroke:rgb(0%,0%,0%);stroke-opacity:1;stroke-miterlimit:4;" d="M 11.999688 13.999244 L 11.999688 10.000131 M 13.999244 11.999688 L 10.000131 11.999688 M 11.999688 3.000731 C 9.914354 4.340758 7.480195 5.036504 5.000288 5.000288 C 4.447503 5.000288 3.999556 5.448234 3.999556 5.999113 L 3.999556 9.540748 C 3.999556 14.525343 7.003656 19.018149 11.612738 20.920492 C 11.860538 21.02533 12.140743 21.02533 12.390449 20.920492 C 16.997625 19.018149 20.001725 14.525343 19.999819 9.540748 L 19.999819 5.999113 C 19.999819 5.448234 19.551873 5.000288 18.999088 5.000288 C 16.521087 5.036504 14.085021 4.340758 11.999688 3.000731 Z M 11.999688 3.000731 " transform="matrix(2.049283,0,0,2.049283,-4.098566,-4.098566)"/>
</g>
</svg>
